<?xml version="1.0" encoding="utf-8"?>
<!-- Generator: Adobe Illustrator 26.0.1, SVG Export Plug-In . SVG Version: 6.00 Build 0)  -->
<svg version="1.1" id="Capa_1" xmlns="http://www.w3.org/2000/svg" xmlns:xlink="http://www.w3.org/1999/xlink" x="0px" y="0px"
	 viewBox="0 0 632.6 560.8" style="enable-background:new 0 0 632.6 560.8;" xml:space="preserve">
<style type="text/css">
	.st0{fill:#FFFFFF;}
</style>
<g>
	<path class="st0" d="M75.6,50.8c-9.3,0-16.8,7.5-16.8,16.8s7.5,16.8,16.8,16.8h64.8l57.8,272.5c2.3,10.3,9,18.8,17.5,18.7h280
		c8.9,0.1,17-7.9,17-16.8c0-8.9-8.2-16.9-17-16.8H229.3l-7.2-33.6H518c7.5-0.1,14.6-5.8,16.3-13.1l39.2-168
		c2.2-9.8-6.3-20.4-16.3-20.5H179.6l-9.1-42.7c-1.6-7.5-8.8-13.3-16.4-13.3L75.6,50.8z M186.6,140.4h87.5l8.4,50.4h-85.2
		L186.6,140.4z M308.4,140.4h105.7l-8.4,50.4h-88.9L308.4,140.4z M448.4,140.4H536l-11.7,50.4H440L448.4,140.4z M204.4,224.4h83.6
		l8.4,50.4h-81.4L204.4,224.4z M322.4,224.4h77.7l-8.4,50.4h-60.9L322.4,224.4z M434.4,224.4h82.1l-11.7,50.4H426L434.4,224.4z
		 M277.2,398c-30.7,0-56,25.3-56,56s25.3,56,56,56s56-25.3,56-56S307.9,398,277.2,398z M434,398c-30.7,0-56,25.3-56,56
		s25.3,56,56,56s56-25.3,56-56S464.7,398,434,398z M277.2,431.6c12.6,0,22.4,9.8,22.4,22.4c0,12.6-9.8,22.4-22.4,22.4
		s-22.4-9.8-22.4-22.4C254.8,441.4,264.6,431.6,277.2,431.6z M434,431.6c12.6,0,22.4,9.8,22.4,22.4c0,12.6-9.8,22.4-22.4,22.4
		c-12.6,0-22.4-9.8-22.4-22.4C411.6,441.4,421.4,431.6,434,431.6z"/>
</g>
</svg>
